<svg xmlns="http://www.w3.org/2000/svg" width="551.2" height="65.901" viewBox="0 0 551.2 65.901">
    <g id="Group_17" data-name="Group 17" transform="translate(-932 -211.585)">
        <g id="Group_16" data-name="Group 16" transform="translate(932 211.635)">
            <g id="Group_5" data-name="Group 5">
                <path id="Path_11" data-name="Path 11" d="M0,27H27.8v7H17.4V48.1h-7V34H0Z"/>
                <path id="Path_12" data-name="Path 12" d="M31.9,26h7v3.4h-7V26Zm0,4.7h7V48.1h-7V30.7Z"/>
                <path id="Path_13" data-name="Path 13" d="M44.5,30.8h7v15a25.836,25.836,0,0,1-.2,3.2,7.172,7.172,0,0,1-.7,2.5,5.533,5.533,0,0,1-1.4,1.9,8.909,8.909,0,0,1-2.4,1.3,15.1,15.1,0,0,1-3.5.8c-1.4.1-3,.2-4.9.2V50.2a14.837,14.837,0,0,0,2.3-.1,7.58,7.58,0,0,0,1.6-.3,2.257,2.257,0,0,0,1.1-.5,3.49,3.49,0,0,0,.6-.9,3.194,3.194,0,0,0,.3-1.4c0-.5.1-1.2.1-2V30.8Zm0-4.8h7v3.4h-7Z"/>
                <path id="Path_14" data-name="Path 14" d="M74.8,27.1h7v21h-7V46.2c-1.9,1.3-4.6,2-8.1,2a16.95,16.95,0,0,1-2.3-.1c-.7-.1-1.4-.2-2.2-.3q-1.2-.3-2.1-.6a8.712,8.712,0,0,1-1.8-1.1,7.518,7.518,0,0,1-1.5-1.6,6.908,6.908,0,0,1-.9-2.3,13.607,13.607,0,0,1-.4-3,7.9,7.9,0,0,1,.9-3.8,7.186,7.186,0,0,1,2.5-2.7,10.034,10.034,0,0,1,3.5-1.5,18.591,18.591,0,0,1,4.2-.5,18.29,18.29,0,0,1,8.2,1.8V27.1Zm0,13.7V38.4c-.6-1.7-3-2.6-7.1-2.6H66.3c-.3,0-.6.1-.8.1a4.116,4.116,0,0,0-.8.3,4.347,4.347,0,0,0-.7.4l-.6.6a1.884,1.884,0,0,0-.4.9,4.869,4.869,0,0,0-.1,1.2c0,2.4,1.7,3.6,5.2,3.6a16.813,16.813,0,0,0,4.4-.4A3.81,3.81,0,0,0,74.8,40.8Z"/>
                <path id="Path_15" data-name="Path 15" d="M85.9,46.2V27h7V48h-7Z"/>
                <path id="Path_16" data-name="Path 16" d="M109.3,30.6c1.5,0,2.8.1,4,.2a13.71,13.71,0,0,1,3.5.8,8.743,8.743,0,0,1,2.9,1.5,6.518,6.518,0,0,1,1.9,2.6,8.9,8.9,0,0,1,.7,3.8,9.279,9.279,0,0,1-.9,4.2,6.176,6.176,0,0,1-2.6,2.7,10.586,10.586,0,0,1-4,1.4,28.336,28.336,0,0,1-5.4.4,28.336,28.336,0,0,1-5.4-.4,12.759,12.759,0,0,1-4-1.5,5.886,5.886,0,0,1-2.5-2.7,8.757,8.757,0,0,1-.8-4.2,8.729,8.729,0,0,1,.7-3.7,5.988,5.988,0,0,1,1.8-2.5,9.356,9.356,0,0,1,2.8-1.6,12.971,12.971,0,0,1,3.4-.8C106.5,30.7,107.8,30.6,109.3,30.6Zm.2,12.8a7.176,7.176,0,0,0,4-.9,3.366,3.366,0,0,0,1.4-3,4.228,4.228,0,0,0-.5-2,2.365,2.365,0,0,0-1.4-1.2c-.6-.2-1.2-.4-1.7-.6a11.019,11.019,0,0,0-1.8-.2,6.6,6.6,0,0,0-1.4.1,7.366,7.366,0,0,0-1.4.4,3.458,3.458,0,0,0-1.2.7,3.331,3.331,0,0,0-.9,1.1,3.653,3.653,0,0,0-.3,1.5,3.615,3.615,0,0,0,1.3,3.1A6.524,6.524,0,0,0,109.5,43.4Z"/>
                <path id="Path_17" data-name="Path 17" d="M125.4,30.7H148v5.6h-.2l-11.7,6.3H148v5.6H125.4V42.6h.3l12.4-6.3H125.4V30.7Z"/>
                <path id="Path_18" data-name="Path 18" d="M164.1,30.3a28.375,28.375,0,0,1,5.4.5,10.451,10.451,0,0,1,4,1.8,7.644,7.644,0,0,1,2.5,3.3,10.344,10.344,0,0,1,.5,5.1H158.7c.1.5.6,1,1.5,1.3a12.979,12.979,0,0,0,4,.5,35.529,35.529,0,0,0,4.6-.3,34.809,34.809,0,0,0,3.5-.6l1.1-.3,3,4.9c-.1,0-.2.1-.3.2-.2.1-.6.2-1.2.4-.7.2-1.4.3-2.2.5-.8.1-2,.3-3.4.4-1.5.1-3.1.2-4.8.2a27.9,27.9,0,0,1-5.3-.4,14.612,14.612,0,0,1-3.7-1.2,6.19,6.19,0,0,1-2.3-1.9,6.759,6.759,0,0,1-1.2-2.4,13.855,13.855,0,0,1-.3-3,7.575,7.575,0,0,1,3.2-6.5C156.7,31.1,159.9,30.3,164.1,30.3Zm0,5.4a21.577,21.577,0,0,0-2.8.2,6.293,6.293,0,0,0-1.7.6,6.529,6.529,0,0,0-.8.7.952.952,0,0,0-.2.7h10.7a1.769,1.769,0,0,0-1.2-1.6A9.518,9.518,0,0,0,164.1,35.7Z"/>
            </g>
            <g id="Group_6" data-name="Group 6">
                <path id="Path_19" data-name="Path 19" d="M334.1,48.1h-5.8l-5.2-9.2v9.2h-7V27h8.3l6.8,11.7L338,27h8.4V48.1h-7V38.8Z"/>
                <path id="Path_20" data-name="Path 20" d="M363.1,30.6c1.5,0,2.8.1,4,.2a13.71,13.71,0,0,1,3.5.8,8.743,8.743,0,0,1,2.9,1.5,6.518,6.518,0,0,1,1.9,2.6,8.9,8.9,0,0,1,.7,3.8,9.279,9.279,0,0,1-.9,4.2,6.176,6.176,0,0,1-2.6,2.7,10.587,10.587,0,0,1-4,1.4,36.65,36.65,0,0,1-10.8,0,12.76,12.76,0,0,1-4-1.5,5.886,5.886,0,0,1-2.5-2.7,10.136,10.136,0,0,1-.8-4.2,8.729,8.729,0,0,1,.7-3.7,5.236,5.236,0,0,1,1.8-2.5,9.356,9.356,0,0,1,2.8-1.6,12.972,12.972,0,0,1,3.4-.8C360.4,30.7,361.7,30.6,363.1,30.6Zm.2,12.8a7.176,7.176,0,0,0,4-.9,3.366,3.366,0,0,0,1.4-3,4.228,4.228,0,0,0-.5-2,3.232,3.232,0,0,0-1.4-1.2c-.6-.2-1.2-.4-1.7-.6a11.019,11.019,0,0,0-1.8-.2,6.6,6.6,0,0,0-1.4.1,7.366,7.366,0,0,0-1.4.4,3.458,3.458,0,0,0-1.2.7,3.331,3.331,0,0,0-.9,1.1,3.653,3.653,0,0,0-.3,1.5,3.615,3.615,0,0,0,1.3,3.1A6.524,6.524,0,0,0,363.3,43.4Z"/>
                <path id="Path_21" data-name="Path 21" d="M416.7,34.3a13.328,13.328,0,0,1,.7,3c.2,1.3.2,2.5.3,3.7v7.1h-7V39.2a2.509,2.509,0,0,0-.2-1,3.553,3.553,0,0,0-.4-.9,1.576,1.576,0,0,0-.7-.7,9.291,9.291,0,0,0-1-.5,3.416,3.416,0,0,0-1.5-.2,7.308,7.308,0,0,0-5.2,2.3c.1,1.4.2,4.3.2,8.5V48H395V39a2.509,2.509,0,0,0-.2-1,6.317,6.317,0,0,0-.4-.9,1.576,1.576,0,0,0-.7-.7,9.291,9.291,0,0,0-1-.5,3.178,3.178,0,0,0-1.4-.2,5.757,5.757,0,0,0-4.9,2.4v9.8h-7V30.7h7v2.1a20.071,20.071,0,0,1,3.2-1.7,11.623,11.623,0,0,1,4-.6,12.458,12.458,0,0,1,4.2.6,4.847,4.847,0,0,1,2.7,2.4,12.781,12.781,0,0,1,8.7-3,9.722,9.722,0,0,1,1.8.1c.5.1,1.1.2,1.7.3a5.212,5.212,0,0,1,1.5.6,6.34,6.34,0,0,1,1.3,1.1A7.352,7.352,0,0,1,416.7,34.3Z"/>
                <path id="Path_22" data-name="Path 22" d="M433.9,30.3a27.585,27.585,0,0,1,5.4.5,11.182,11.182,0,0,1,4,1.8,7.644,7.644,0,0,1,2.5,3.3,10.344,10.344,0,0,1,.5,5.1H428.5c.1.5.6,1,1.5,1.3a12.979,12.979,0,0,0,4,.5,35.529,35.529,0,0,0,4.6-.3,34.808,34.808,0,0,0,3.5-.6l1.1-.3,3,4.9c-.1,0-.2.1-.3.2a7.687,7.687,0,0,1-1.2.4c-.7.2-1.4.3-2.2.5-.8.1-2,.3-3.4.4-1.5.1-3.1.2-4.8.2a27.9,27.9,0,0,1-5.3-.4,14.612,14.612,0,0,1-3.7-1.2,6.189,6.189,0,0,1-2.3-1.9,6.759,6.759,0,0,1-1.2-2.4,13.854,13.854,0,0,1-.3-3,7.575,7.575,0,0,1,3.2-6.5C426.6,31.1,429.8,30.3,433.9,30.3Zm.1,5.4a21.577,21.577,0,0,0-2.8.2,4.711,4.711,0,0,0-1.7.6,6.528,6.528,0,0,0-.8.7.952.952,0,0,0-.2.7h10.7a1.769,1.769,0,0,0-1.2-1.6A9.518,9.518,0,0,0,434,35.7Z"/>
                <path id="Path_23" data-name="Path 23" d="M472.6,34.3a11.906,11.906,0,0,1,.9,4.2c.1,1.7.2,4.5.2,8.3v1.4h-7V40.4c0-.4-.1-.7-.1-.9a6.374,6.374,0,0,1-.2-.9,2.01,2.01,0,0,0-.4-.8c-.2-.2-.3-.4-.6-.7a5.548,5.548,0,0,0-.8-.6,3.545,3.545,0,0,0-1.1-.3c-.4,0-.9-.1-1.4-.1a6.841,6.841,0,0,0-3.1.6,6.524,6.524,0,0,0-2.1,1.6v10h-7.1V30.7h7.1v2.4a7.69,7.69,0,0,1,1.5-1c.4-.2.8-.5,1.5-.8a6.463,6.463,0,0,1,2.1-.6,18.1,18.1,0,0,1,2.5-.2,19.29,19.29,0,0,1,2.5.1,10.613,10.613,0,0,1,2.3.5,6.985,6.985,0,0,1,2.1,1.1A10.5,10.5,0,0,1,472.6,34.3Z"/>
                <path id="Path_24" data-name="Path 24" d="M489.2,42.4a9.151,9.151,0,0,0,1.6-.1c.6-.1,1.1-.2,1.6-.3s.9-.2,1.3-.3a4.649,4.649,0,0,0,.9-.3.774.774,0,0,1,.3-.1l2.5,5.4a6.833,6.833,0,0,1-1.3.4,21.066,21.066,0,0,1-3.7.6,38.593,38.593,0,0,1-6,.4A16.271,16.271,0,0,1,484,48a4.8,4.8,0,0,1-1.7-.5,3.779,3.779,0,0,1-1.2-.9,4.791,4.791,0,0,1-.7-1.6,14.982,14.982,0,0,1-.4-2.4,33.253,33.253,0,0,1-.1-3.4V35.7h-3.5V30.5h3.5V27h7v3.6h8.5v5.2h-8.5v4.1c0,.2.1.4.1.6a1.421,1.421,0,0,0,.2.6,2.092,2.092,0,0,0,.4.6,1.612,1.612,0,0,0,.7.4A1.4,1.4,0,0,0,489.2,42.4Z"/>
                <path id="Path_25" data-name="Path 25" d="M511.4,30.3a27.585,27.585,0,0,1,5.4.5,11.182,11.182,0,0,1,4,1.8,7.644,7.644,0,0,1,2.5,3.3,10.344,10.344,0,0,1,.5,5.1H506c.1.5.6,1,1.5,1.3a12.979,12.979,0,0,0,4,.5,35.529,35.529,0,0,0,4.6-.3,34.808,34.808,0,0,0,3.5-.6l1.1-.3,3,4.9c-.1,0-.2.1-.3.2a7.686,7.686,0,0,1-1.2.4c-.7.2-1.4.3-2.2.5-.8.1-2,.3-3.4.4-1.5.1-3.1.2-4.8.2a27.9,27.9,0,0,1-5.3-.4,14.612,14.612,0,0,1-3.7-1.2,6.189,6.189,0,0,1-2.3-1.9,6.759,6.759,0,0,1-1.2-2.4,13.854,13.854,0,0,1-.3-3,7.575,7.575,0,0,1,3.2-6.5C504.1,31.1,507.2,30.3,511.4,30.3Zm.1,5.4a21.577,21.577,0,0,0-2.8.2,4.711,4.711,0,0,0-1.7.6,6.528,6.528,0,0,0-.8.7.952.952,0,0,0-.2.7h10.7a1.769,1.769,0,0,0-1.2-1.6A9.517,9.517,0,0,0,511.5,35.7Z"/>
                <path id="Path_26" data-name="Path 26" d="M550.1,34.3a11.907,11.907,0,0,1,.9,4.2c.1,1.7.2,4.5.2,8.3v1.4h-7V40.4c0-.4-.1-.7-.1-.9a6.383,6.383,0,0,1-.2-.9,2.01,2.01,0,0,0-.4-.8c-.2-.2-.3-.4-.6-.7a5.548,5.548,0,0,0-.8-.6,3.545,3.545,0,0,0-1.1-.3c-.4,0-.9-.1-1.4-.1a6.841,6.841,0,0,0-3.1.6,6.524,6.524,0,0,0-2.1,1.6v10h-7.1V30.7h7.1v2.4a7.688,7.688,0,0,1,1.5-1c.4-.2.8-.5,1.5-.8a6.463,6.463,0,0,1,2.1-.6,18.1,18.1,0,0,1,2.5-.2,19.29,19.29,0,0,1,2.5.1,10.613,10.613,0,0,1,2.3.5,6.985,6.985,0,0,1,2.1,1.1A10.5,10.5,0,0,1,550.1,34.3Z"/>
            </g>
            <g id="Group_7" data-name="Group 7">
                <path id="Path_27" data-name="Path 27" d="M222.2,14.4s10.7,16,15.5,16.5l-.7,2.6-4.5,1.4L223.4,33s-2.8-6.4-2.8-7.3C220.8,24.9,222.2,14.4,222.2,14.4Z" fill="#ccc" opacity="0.67"/>
                <path id="Path_28" data-name="Path 28" d="M239.6,31.8a8.817,8.817,0,0,0,1.7-1.9c.3-.5,1.3-1,1.7-1.5a15.171,15.171,0,0,0,1.6-3.1,8.911,8.911,0,0,1,2.6-2.9c2.6-1.5,6.4-2.4,6.8-3.5,1.2,2.2.5,15.6.5,15.6L250,43l-8.9-1.5-4-1.6Z" fill="#ccc" opacity="0.67"/>
                <path id="Path_29" data-name="Path 29" d="M266.4,32.4A25.983,25.983,0,0,0,277,27c3.8-3.4,6.6-9.4,7.9-13.5l.3,18.8L278.6,34l-4.3,2.3-7.4-2.8Z" fill="#b3b3b3" opacity="0.67"/>
                <path id="Path_30" data-name="Path 30" d="M221.9,14.3s10.7,15.8,15.6,16.4l-.7,2.6-4.5,1.4-9.1-1.8s-2.8-6.3-2.8-7.2C220.5,24.8,221.9,14.3,221.9,14.3Z" fill="#ccc" opacity="0.67"/>
                <path id="Path_31" data-name="Path 31" d="M239.3,31.5a8.817,8.817,0,0,0,1.7-1.9c.3-.5,1.3-1,1.7-1.5a18.673,18.673,0,0,0,1.6-3,8.911,8.911,0,0,1,2.6-2.9c2.6-1.5,6.4-2.4,6.8-3.5,1.2,2.2.5,15.4.5,15.4l-4.6,8.4L240.7,41l-4-1.6Z" fill="#ccc" opacity="0.67"/>
                <path id="Path_32" data-name="Path 32" d="M251.8,36.5c2.4-3.4,1.9-17.7,1.9-17.7l8.2,9.7c2.9,4.2,7.6,9.6,9.3,9.6s1.2,3.4,1.2,3.4-7.6-3.7-13.5-3.3c-3.1.2-6.2,4.5-6.3,4.6-.1.4-20.6-2.6-20.6-2.6l-6.6-5.5L222,24.8l3.4-1.9s3.6,3.5,4.6,2.4c.9-1.1.7,1.8,1.4,3.1.7,1.2,4.7,3.8,5.5,2.4,0,0,6.2-2.4,7.4-6,.9,2.4,3.3,10.6,4.4,11.8" fill="#ccc"/>
                <path id="Path_33" data-name="Path 33" d="M219,22.4a1,1,0,0,0,.4-.5c1.4-2.2,2-5.1,2.5-7.6-.1.3.3,1.1.4,1.4.1.4.2.7.3,1.1.1.5.3,1,.4,1.5.2.5.4.9.6,1.4a9.292,9.292,0,0,1,.5,1,11.764,11.764,0,0,1,.7,2c1.5,3.9,2,7.8,4.1,11.5a5.273,5.273,0,0,0,1.1,1.5c3,2.8-12.5,4.3-12.5,4.3l-8.8-1.4V35.7l-.4-3.5V30" fill="#ccc"/>
                <path id="Path_34" data-name="Path 34" d="M208.3,30s9.3-3.4,10.7-7.6" fill="#ccc"/>
                <path id="Path_35" data-name="Path 35" d="M242.8,36.8c3.9-2.5,4-13.7,4-13.7,0-.2-.1-.6.1-.8-.3.3,1.2,1.8,1.4,2.1a13.046,13.046,0,0,1,1.4,2.6,50.429,50.429,0,0,0,2.6,5.2,12.975,12.975,0,0,0,3.4,4.3,3.293,3.293,0,0,0,1.3.7" fill="#b3b3b3" stroke="#b3b3b3" stroke-miterlimit="10" stroke-width="0.25"/>
                <path id="Path_36" data-name="Path 36" d="M258.1,38.7c-3.9-2.5-4-13.7-4-13.7a2.7,2.7,0,0,0-.5-1.1c.3.3-.4,2.2-.6,2.5a12.293,12.293,0,0,0-1.4,2.5,55.406,55.406,0,0,1-3,5.3,12.975,12.975,0,0,1-3.4,4.3,3.293,3.293,0,0,1-1.3.7" fill="#b3b3b3" stroke="#b3b3b3" stroke-miterlimit="10" stroke-width="0.25"/>
                <path id="Path_37" data-name="Path 37" d="M245.2,40.3c-1.4,2.1-4.4,1.8-9.5,1.3-.1-6.4-6.4-6.8-8-7.5-.9-1.6-1.1-2.4-3.5-.3a4.125,4.125,0,0,1-1.3,1,4.972,4.972,0,0,1-2.7.4,20.48,20.48,0,0,1-2.4-.5,2.618,2.618,0,0,1-1.3-.6,3.858,3.858,0,0,1-1.1-1.7,13.242,13.242,0,0,0-1.2-2,26.937,26.937,0,0,0-3-3.7,2.652,2.652,0,0,1-.5-.6,2.232,2.232,0,0,1-.3-1.4,26.93,26.93,0,0,1,.3-4l-.3.6-.8,2.4-1,4.2-.3,3.6s.4,5.4.5,6.1a12.949,12.949,0,0,1-.6,3l-.9,1.9-1.1,2.9-.6,2s7.1,2.6,8.5,2.6c.6-1.2.2-1.3.4-1.6a5.129,5.129,0,0,1,.7-1.7c.2-1.7,1.5-.9,1.5-.9l2.9,1,1.2.6,13-3.2,1.2-.4.4-.5.2.5,1.8.2,16.2,2.7,2.2-3.6,1.6-1.6.9-1.2.6-1.3.1-.8h1.1l1.3.7,1.3,2.1.2,1.7-.1,4.9,11.6,3.2.7-2.1s-15.7-14.7-17-19c-.1-.5-2.6,3.8-3.1,4.9-.9.1-2.3-2.7-2.2-1.3,0,1.4-1.5,2.2-2.1,3.2Z" fill="#b3b3b3" stroke="#b3b3b3" stroke-miterlimit="10" stroke-width="0.25"/>
                <path id="Path_38" data-name="Path 38" d="M281.8,25.7" fill="#b3b3b3" stroke="#b3b3b3" stroke-miterlimit="10" stroke-width="0.25"/>
                <path id="Path_39" data-name="Path 39" d="M280.9,27.9a.1.1,0,0,1,.1-.1,23.353,23.353,0,0,0,.7-2.5,8.333,8.333,0,0,1,.4-1.5c.2-1,.5-2.1.8-3.1.6-2.4,1.3-4.8,2.1-7.1,2,5,4.2,10,6.1,15a14.369,14.369,0,0,1,1,5,4.747,4.747,0,0,1-2.4,4.3,4.668,4.668,0,0,1-4-.2,11.521,11.521,0,0,1-3.3-2.5c-.6-.5-1.2-1.1-2-1-.3,0-.5.1-.8.1-.8-.1-1.1-1.4-1.9-1.2-.1.2-.3.3-.4.5a2.32,2.32,0,0,1,1.4,1.9,3.812,3.812,0,0,1-.1,1.5c-.1.6-.2,1.1-.3,1.7a1.421,1.421,0,0,1-.2.6c-.1.2-.4.3-.6.4a28.187,28.187,0,0,0-4.8,2.7,8.272,8.272,0,0,1-1.6.9,4.485,4.485,0,0,1-1.1.1c-1.4,0-2.7-.1-4.1-.1-.9-1.6-1.8-3.2-2.7-4.9H259c.9-1.3,2.5-2,4-2.7s3-1.7,3.5-3.2a27.536,27.536,0,0,0,3.8,2,6.789,6.789,0,0,0,4.2.4,3.176,3.176,0,0,0,2.3-3.2,1.576,1.576,0,0,0,.7.7.633.633,0,0,0,.9-.1c.1-.1.1-.3.2-.5.2-.3.5-.3.8-.5a1.622,1.622,0,0,0,.9-1.1A6.539,6.539,0,0,1,280.9,27.9Z" fill="#b3b3b3"/>
                <path id="Path_40" data-name="Path 40" d="M241.8,13.9a11,11,0,0,1,6.7-9.7" fill="none" stroke="#000" stroke-linecap="round" stroke-miterlimit="10" stroke-width="1"/>
                <path id="Path_41" data-name="Path 41" d="M273.5,15.5s-.5-3.3,1.7-4.2" fill="none" stroke="#000" stroke-linecap="round" stroke-miterlimit="10" stroke-width="1"/>
                <path id="Path_42" data-name="Path 42" d="M275.7,17.4h0a.31.31,0,0,1-.2.1c-.1,0-.1-.1-.1-.2a3.43,3.43,0,0,1,.4-3.1c.1-.1.2-.3.3-.3.2-.1.3,0,.5.1a11.734,11.734,0,0,1,1.1.5,5.3,5.3,0,0,1,1,.6l.1.1c.1.2-.1.3-.3.3s-.5-.2-.7-.2a1.612,1.612,0,0,0-1.3.6,3.606,3.606,0,0,0-.8,1.5Z" stroke="#000" stroke-miterlimit="10" stroke-width="0.25"/>
                <path id="Path_43" data-name="Path 43" d="M282.5,24.5a.426.426,0,0,1-.2-.8,10.16,10.16,0,0,1,1.6-1c.1,0,2.6,1.9,3.6,2.7a.483.483,0,0,1,0,.7l-2.3,2.2a.494.494,0,0,1-.7-.1l-1.3-2.1a.449.449,0,0,1,.4-.7h.7a.43.43,0,0,0,.4-.4h0a.43.43,0,0,0-.4-.4h-1.8Z" stroke="#000" stroke-miterlimit="10" stroke-width="0.25"/>
                <path id="Path_44" data-name="Path 44" d="M294.1,24.2a4.171,4.171,0,0,0-3.8.5c-1.4.9.7,4.1.7,4.1a22.239,22.239,0,0,0,3.1-3.4C294.1,24.4,294.1,24.2,294.1,24.2Z"/>
                <path id="Path_45" data-name="Path 45" d="M291.2,15.4l1.1.8a.443.443,0,0,0,.7-.2,1.756,1.756,0,0,0,.2-1.4c-.1-.3-.5-.4-.7-.4a1.1,1.1,0,0,0-.8,0,1.024,1.024,0,0,0-.6.5C291,14.9,291,15.3,291.2,15.4Z" stroke="#000" stroke-miterlimit="10" stroke-width="1"/>
                <path id="Path_46" data-name="Path 46" d="M263.7,55.5s5.3,1.9,9.1-1" fill="none" stroke="#000" stroke-miterlimit="10" stroke-width="1"/>
                <path id="Path_47" data-name="Path 47" d="M287.4,35.7a7.464,7.464,0,0,0-2.7,1.5" fill="none"/>
                <path id="Path_48" data-name="Path 48" d="M277.5,51" fill="#333" stroke="#333" stroke-miterlimit="10" stroke-width="0.25"/>
                <path id="Path_49" data-name="Path 49" d="M214.4,52.4a24.519,24.519,0,0,0-.1,3.7c.6,3.2,2,3.4,4.9,5.6.4,1.4-2.3,1.4-3.1,1.4-2.5.2-6,.2-7.9-.9-.7-.4-.7-1.7-1.3-3.2a25.856,25.856,0,0,1-2.1-6.8c-.3-3.1.6-6.2,1.3-6.9,0,0,3.5.7,5.1,2s2.2-2.8,4.4-2l-1.3,3.8Z" fill="#333" stroke="#333" stroke-miterlimit="10" stroke-width="0.25"/>
                <path id="Path_50" data-name="Path 50" d="M278.4,38.1,275,48.7l-1.1,1.1-1.6.5-3.5.4-5-.2-1.5-.3.3-3.5c.1-.6.1-1.3.2-1.9a1.337,1.337,0,0,0,.9-.1,12.094,12.094,0,0,0,1.6-1.6,9.428,9.428,0,0,1,1-1l.9-.9c.2-.4.6-1.3,1.1-.8.3.2.6,1,1.1.9a12.5,12.5,0,0,0,1.9-.3,12.445,12.445,0,0,0,2-1c.5-.4.4-1.1.9-1.4.7-.4-.3,2.4.5,2.2.6-.1,2.8-3.4,3.4-3.3h.3Z" fill="#333" stroke="#333" stroke-miterlimit="10" stroke-width="0.25"/>
                <path id="Path_51" data-name="Path 51" d="M262.4,50.2s2-.8,6.4-.3,6.4-2,6.4-2l-2.3,6.5-.2.5-.9.4-1.6.4-3.8.4a6.483,6.483,0,0,1-2.7-.7,4.666,4.666,0,0,1-1.1-2.4l-.2-2v-.8" fill="#1a1a1a" stroke="#1a1a1a" stroke-miterlimit="10" stroke-width="0.75"/>
                <path id="Path_52" data-name="Path 52" d="M272.8,54.6v.3a24.976,24.976,0,0,0-1.1,3.5,1.7,1.7,0,0,0,.5,1.7l1.5,1.1,1,.7,1.2,1,.5.4.1.5-.3.3-2.4.1-4.6-.1s-2.2-.1-3.4-.3c-1.2-.1-1.3-.6-1.3-.6V61.8l.2-1.9.1-1.1-.1-1.1-.4-1.2-.6-1S271.7,55.8,272.8,54.6Z" stroke="#1a1a1a" stroke-miterlimit="10" stroke-width="0.25"/>
                <path id="Path_53" data-name="Path 53" d="M292.1,33.9c.1-1.2-4-1-4.7.1s.5,2.4,1.3,3,.5.9.5.9V38C289.2,37.9,291.9,36.2,292.1,33.9Z"/>
                <path id="Path_54" data-name="Path 54" d="M246.1,31.6"/>
                <path id="Path_55" data-name="Path 55" d="M231.1,50.5"/>
                <path id="Path_56" data-name="Path 56" d="M215.1,46.4" fill="#333" stroke="#333" stroke-miterlimit="10" stroke-width="0.5"/>
                <path id="Path_57" data-name="Path 57" d="M247.9,33a13.515,13.515,0,0,0,2.6,4.7c1.6,1.7,1.9,5.8,3.5,7.5v.5l-19.2-7.3a15.381,15.381,0,0,0,1.3-1.2c.7-.5,1.5-.9,2.2-1.4a5.025,5.025,0,0,0,1.2-.8c.5-.5.3-1.4.6-2,0-.1,0,0,.1-.1l.4.2c.2.1.4.1.6.2a8.331,8.331,0,0,1,1.5.4.905.905,0,0,0,1-.3,3.924,3.924,0,0,0,.8-1.4c.3-.6.5-1.2.8-1.8h0a7.911,7.911,0,0,1,.5-1.3c.1.2.6,1.4.8,2a3.465,3.465,0,0,0,.6-1.3C247.3,29.6,247.7,32.5,247.9,33Z" fill="#666" stroke="#666" stroke-miterlimit="10" stroke-width="0.25"/>
                <path id="Path_58" data-name="Path 58" d="M243.9,39.1a18.306,18.306,0,0,1,2.4,1.5l2.6,1,5.7,3.4-2,4.4-13.4-2-.4-3.3-3.9-.7a15.941,15.941,0,0,1-2,1.1c-.1,0-1.3,2.3-1.3,2.3l-1.3,4.6-.9,1.7-1-.3-1.9-1.4-1.8-1-2.1.4-2-3.3-2.3-1.6H215c1.4-1.5,2.3-3.5,3.7-5,1.6-1.7,2.7-3.8,4.2-5.6a37.262,37.262,0,0,0,3.6-4.3c.1-.1.1-.2.2-.3.5-.8.9-1.8,1.4-2.6.1-.1.1-.2.3-.3.3-.2.6.1.8.4.9,1.3,1.3,4,2.6,3.5a8.331,8.331,0,0,1,1.5-.4,1.421,1.421,0,0,0,.6-.2l.4-.2.1.1c.3.5.1,1.5.6,2a12.487,12.487,0,0,0,1.2.8c.7.5,1.5.9,2.2,1.4a15.381,15.381,0,0,1,1.3,1.2A21.343,21.343,0,0,0,243.9,39.1Z" fill="#4d4d4d" stroke="#4d4d4d" stroke-miterlimit="10" stroke-width="0.25"/>
                <path id="Path_59" data-name="Path 59" d="M231.1,50.5c0,4.8-.1,5.4.2,6s.9,1.4,3.7,4l-.1.9c-2,.4-2.7,0-5.1-.1-1.1-.1-2.3.3-3.5.1-2.8-.7-1.9-.4-2.8-2.8-.2-.8.4-2,.3-2.5a13.873,13.873,0,0,0-1-5s-1.8-4.3-4.7-5c-2.3-.4-2.6-.5-2.6-.5s4.2-2.3,5.8-3.1c1.2-.7,3.6-.7,5.3-.8,0,0,2,3.6,2.8.9s1.8,4.4,5.6,1c0-.2-4.3,1.2-3.9,6.9"/>
                <path id="Path_60" data-name="Path 60" d="M253.4,48.3l-.4,1-.7,3.6-.7.6-1.1.8-5.1.6-4.5-2.4-.7-1.3-.4-1.6-.4-2.1s5.7-1.2,6-1.4,1.9,2.5,4.2,1.7,4.7-1.7,4.7-1.7Z" fill="#333" stroke="#333" stroke-miterlimit="10" stroke-width="0.25"/>
                <path id="Path_61" data-name="Path 61" d="M244.7,54.2c3.3.4,5.1-.8,7.7-1.5l-.2,2.7-6.6.1Z" fill="#1a1a1a" stroke="#1a1a1a" stroke-miterlimit="10" stroke-width="1"/>
                <path id="Path_62" data-name="Path 62" d="M240.1,49.9l2.7,1.8a24.259,24.259,0,0,0,2,1.4,11.351,11.351,0,0,0,4.8,1.2c.8.1,1.9.4,2.5-.3h.1s-.1,3-.1,4.5a3.226,3.226,0,0,0,.3,2.2l1.2.8,2.2,1.6,1,1v.7l-1.3.3a11.969,11.969,0,0,0-2.4.2,29.921,29.921,0,0,1-6.2-.4c-1.7-.3-1.9-.9-1.9-.9s-.4-1.6-.6-2.6a21.355,21.355,0,0,0-2.3-4l-1-2.5-.3-1.6-.4-1.6-.3-1.8"/>
                <path id="Path_63" data-name="Path 63" d="M205.7,56.8a10.767,10.767,0,0,1,1.7,4.5c.1.3.1.6.3.8s.4.2.6.3c3.2,1.1,7.1.9,10.5.5,1.4-.2.1-1.5-.5-1.9-.5-.4-1-.8-1.6-1.2s-1.1-.6-1.4-1.3a.349.349,0,0,0-.1-.2c-1-2.6-.7-3.1-1-5.8a9.663,9.663,0,0,1-.1-2.4,10.527,10.527,0,0,1,1.1-4.3.1.1,0,0,1,.1-.1h.1a10.871,10.871,0,0,1,2.6.4,5.382,5.382,0,0,1,2,1,9.266,9.266,0,0,1,1.4,1.4,5.559,5.559,0,0,1,.9,1.7c.2.6.4,1.3.6,1.9a12.859,12.859,0,0,1,.4,1.9,11.628,11.628,0,0,0,.4,1.8c.1.2.1.5.2.7,0,0-2.3,5.5,4.4,4.9a50.554,50.554,0,0,1,5.5.2,1.943,1.943,0,0,0,1.3-.3c.9-.9-1.8-2.9-2.3-3.4a5.177,5.177,0,0,1-1.8-3.3,17,17,0,0,1,.2-4.5,12.548,12.548,0,0,1,1.2-4.6c.2-.3,2.5-2.7,3.1-2,.1.2,3.4.3,3.4.6-.1,3.1,1,5.7,1.6,8.7a13.593,13.593,0,0,0,1.7,3.9c.1.3.3.5.4.8a19.814,19.814,0,0,1,2.2,5.7c.1.3.1.6.3.8s.4.2.6.3c3.2,1.1,7.1.9,10.5.5,2.4-.3-2.4-3.3-2.9-3.6a5.582,5.582,0,0,1-.8-.5,2.523,2.523,0,0,1-.6-1.7c0-5.6.1-11,3.8-15.6a42.345,42.345,0,0,0,3.2-4.2c.2-.4.5-.9,1-.9,1.3-.2,2.1,1.4,2.4,2.4a10.8,10.8,0,0,1,.6,4c0,1.9-.3,3.7-.4,5.6a7.852,7.852,0,0,0,.7,4.3,22.476,22.476,0,0,1,1.2,2.1c1.1,1.9.3,4.1.2,6.2,0,.3,0,.6.2.7.1.1.3.1.5.2,1.8.2,3.5.4,5.3.5s3.7,0,5.5,0a.6.6,0,0,0,.4-.1c.3-.2.1-.7-.2-1a10.179,10.179,0,0,0-2.3-1.8,5.229,5.229,0,0,1-1.7-1.2,2.877,2.877,0,0,1-.5-2,8.3,8.3,0,0,1,.6-2.1c1.2-3.3,2.4-6.7,3.6-10a47.425,47.425,0,0,0,2.7-9.6,1.962,1.962,0,0,0-1.1-2.4c-.7-.5.1-1.2.7-.8.5.3.6,1.1,1.2,1.2.5.1.9-.3,1.4-.3.6,0,.8.5,1.1.9a13.572,13.572,0,0,0,1.2,1.2,11.815,11.815,0,0,0,2.9,1.6c.3.1,1.3.7,1.7.6,2.5-.5,5.1-3.4,4.2-6a18.872,18.872,0,0,1-.9-3.4v-.2c0-.1.1-.1.1-.2,1.2-1,2.6-2.2,2.9-3.8a8.854,8.854,0,0,0,0-2.3,19.294,19.294,0,0,1,0-3.4,7.714,7.714,0,0,1,.7-2.6,5.286,5.286,0,0,0,.2-2.8c-.2-1.6-2.5-1.5-3.2-1.5-1.2,0-2.4-.7-3.5-1a11.5,11.5,0,0,1-1.7-.6,1.421,1.421,0,0,0-.6-.2c-2-.7-4-1.4-5.9-2.1-1.1-.4-2.2-.9-3.3-1.4a20.129,20.129,0,0,1-2.5-1.4,20.129,20.129,0,0,1-2.5-1.4c-2.8-1.8-6-3.5-9.4-3.5-2.5,0-5,1-7.4,1.8-2.1.7-4.3,1.2-6.4,1.7-2,.4-4-.1-6-.2a81.663,81.663,0,0,0-8.6-.2c-5.6.2-11.3,1.6-15.7,5.2a25.667,25.667,0,0,0-6.7,9.5A35.341,35.341,0,0,0,208.3,30v.7c-.1,2.7.7,5.2.5,7.9a19.108,19.108,0,0,1-2.5,6.9,11.122,11.122,0,0,0-1.4,6.2c.1,1,.1,1.9.2,2.9a9.017,9.017,0,0,0,.6,2.2" fill="none" stroke="#000" stroke-miterlimit="10" stroke-width="1.5"/>
            </g>
            <path id="Path_64" data-name="Path 64" d="M227.4,61.4a5.467,5.467,0,0,1-3.1-.7c-.1,0-.1-.1-.1-.2s0-.1.1-.2c.5-.6.9-1.3,1.6-1.6a7.607,7.607,0,0,0,2.1-.8,4.3,4.3,0,0,0,.9-1c.1-.1.3-.4.4-.4a.664.664,0,0,1,.5.4,4.557,4.557,0,0,0,2.2,1.7c.4.1.9.1,1.3.2a2.54,2.54,0,0,1,1.3,1.2c.1.2.3.4.2.6,0,.2-.2.3-.4.4a2.663,2.663,0,0,1-1.2.3,26.2,26.2,0,0,1-2.8-.1C229.6,61.2,228.5,61.4,227.4,61.4Z" fill="#333" stroke="#333" stroke-miterlimit="10" stroke-width="0.5"/>
        </g>
    </g>
</svg>
